<svg fill="#FFFFFF" xmlns="http://www.w3.org/2000/svg"  viewBox="0 0 32 32" width="48px" height="48px"><path fill="none" stroke="#FFFFFF" stroke-miterlimit="10" stroke-width="2" d="M11.9 14.3A5.8 5.8 0 1 0 11.9 25.900000000000002 5.8 5.8 0 1 0 11.9 14.3zM3.9 23.4L6.6 22.3M17.2 17.9L19.9 16.8M8.6 12.1L9.7 14.8M14.1 25.4L15.2 28.1M3.9 16.8L6.6 17.9M17.2 22.3L19.9 23.4M15.2 12.1L14.1 14.8M9.7 25.4L8.6 28.1M22.5 4.8A4.7 4.7 0 1 0 22.5 14.2 4.7 4.7 0 1 0 22.5 4.8zM17.5 14.5L19.2 12.8M25.8 6.2L27.4 4.6M17.5 4.6L19.2 6.2M25.8 12.8L27.4 14.5M15.5 9.5L17.8 9.5M27.2 9.5L29.5 9.5M22.5 2.5L22.5 4.8M22.5 14.2L22.5 16.5"/></svg>